<svg width="72" height="20" viewBox="0 0 72 20" fill="none" xmlns="http://www.w3.org/2000/svg">
<path d="M8.43129 4.70169C8.365 4.08143 8.08564 3.59847 7.59322 3.25283C7.10553 2.90718 6.47106 2.73436 5.68981 2.73436C5.14057 2.73436 4.66945 2.81722 4.27646 2.98294C3.88346 3.14866 3.5828 3.37356 3.37447 3.65766C3.16613 3.94175 3.0596 4.26608 3.05487 4.63067C3.05487 4.9337 3.12352 5.19648 3.26083 5.41902C3.40288 5.64156 3.59464 5.83095 3.83612 5.9872C4.07759 6.13872 4.34511 6.26656 4.63867 6.37072C4.93223 6.47489 5.22816 6.56249 5.52646 6.63351L6.89009 6.97442C7.43933 7.10226 7.96727 7.27508 8.4739 7.49288C8.98526 7.71069 9.44218 7.98531 9.84464 8.31675C10.2518 8.64819 10.5738 9.04828 10.8105 9.51703C11.0473 9.98578 11.1657 10.535 11.1657 11.1648C11.1657 12.017 10.9479 12.7675 10.5123 13.4162C10.0766 14.0601 9.44691 14.5644 8.62305 14.929C7.80392 15.2888 6.81197 15.4687 5.64719 15.4687C4.51557 15.4687 3.53308 15.2935 2.69975 14.9432C1.87115 14.5928 1.22248 14.0814 0.753729 13.4091C0.289714 12.7367 0.0387666 11.9176 0.000887811 10.9517H2.59322C2.6311 11.4583 2.78735 11.8797 3.06197 12.2159C3.33659 12.5521 3.69407 12.803 4.13441 12.9687C4.57949 13.1345 5.07665 13.2173 5.62589 13.2173C6.1988 13.2173 6.7007 13.1321 7.13157 12.9616C7.56718 12.7864 7.90808 12.545 8.1543 12.2372C8.40051 11.9247 8.52598 11.5601 8.53072 11.1435C8.52598 10.7647 8.41471 10.4522 8.19691 10.206C7.97911 9.955 7.67371 9.74667 7.28072 9.58095C6.89246 9.4105 6.43791 9.25898 5.91708 9.12641L4.26225 8.70027C3.06433 8.39251 2.11737 7.92612 1.42134 7.30112C0.730055 6.67139 0.384411 5.83569 0.384411 4.79402C0.384411 3.93701 0.616418 3.18654 1.08043 2.5426C1.54918 1.89866 2.18602 1.39913 2.99094 1.04402C3.79587 0.684171 4.70733 0.504247 5.72532 0.504247C6.75752 0.504247 7.66187 0.684171 8.43839 1.04402C9.21964 1.39913 9.8328 1.89393 10.2779 2.52839C10.723 3.15813 10.9526 3.88256 10.9668 4.70169H8.43129ZM18.1596 15.4616C17.0943 15.4616 16.171 15.2273 15.3897 14.7585C14.6085 14.2898 14.0024 13.634 13.5716 12.7912C13.1454 11.9484 12.9324 10.9635 12.9324 9.83663C12.9324 8.70974 13.1454 7.72252 13.5716 6.87499C14.0024 6.02745 14.6085 5.3693 15.3897 4.90055C16.171 4.4318 17.0943 4.19743 18.1596 4.19743C19.225 4.19743 20.1483 4.4318 20.9295 4.90055C21.7108 5.3693 22.3145 6.02745 22.7406 6.87499C23.1715 7.72252 23.3869 8.70974 23.3869 9.83663C23.3869 10.9635 23.1715 11.9484 22.7406 12.7912C22.3145 13.634 21.7108 14.2898 20.9295 14.7585C20.1483 15.2273 19.225 15.4616 18.1596 15.4616ZM18.1738 13.402C18.7515 13.402 19.2344 13.2434 19.6227 12.9261C20.0109 12.6042 20.2998 12.1733 20.4892 11.6335C20.6833 11.0937 20.7804 10.4924 20.7804 9.82953C20.7804 9.16192 20.6833 8.55822 20.4892 8.01845C20.2998 7.47394 20.0109 7.04071 19.6227 6.71874C19.2344 6.39677 18.7515 6.23578 18.1738 6.23578C17.582 6.23578 17.0895 6.39677 16.6966 6.71874C16.3083 7.04071 16.0171 7.47394 15.823 8.01845C15.6336 8.55822 15.5389 9.16192 15.5389 9.82953C15.5389 10.4924 15.6336 11.0937 15.823 11.6335C16.0171 12.1733 16.3083 12.6042 16.6966 12.9261C17.0895 13.2434 17.582 13.402 18.1738 13.402ZM30.3276 15.4616C29.2386 15.4616 28.3034 15.2225 27.5222 14.7443C26.7457 14.2661 26.1467 13.6056 25.7253 12.7628C25.3087 11.9152 25.1003 10.9399 25.1003 9.83663C25.1003 8.72868 25.3134 7.75093 25.7395 6.9034C26.1657 6.05112 26.767 5.38824 27.5435 4.91476C28.3248 4.43654 29.248 4.19743 30.3134 4.19743C31.1988 4.19743 31.9824 4.36078 32.6642 4.68749C33.3508 5.00946 33.8977 5.46637 34.3049 6.05822C34.7121 6.64535 34.9441 7.3319 35.0009 8.11788H32.5435C32.4441 7.59232 32.2073 7.15434 31.8333 6.80396C31.464 6.44885 30.9692 6.27129 30.3489 6.27129C29.8233 6.27129 29.3617 6.41334 28.964 6.69743C28.5662 6.97679 28.2561 7.37925 28.0336 7.90482C27.8158 8.43038 27.7069 9.06012 27.7069 9.79402C27.7069 10.5374 27.8158 11.1766 28.0336 11.7116C28.2514 12.2419 28.5568 12.6515 28.9498 12.9403C29.3475 13.2244 29.8139 13.3665 30.3489 13.3665C30.7277 13.3665 31.0662 13.2954 31.3645 13.1534C31.6676 13.0066 31.9209 12.7959 32.1245 12.5213C32.3281 12.2467 32.4677 11.9129 32.5435 11.5199H35.0009C34.9393 12.2917 34.7121 12.9758 34.3191 13.5724C33.9261 14.1643 33.391 14.6283 32.714 14.9645C32.0369 15.2959 31.2414 15.4616 30.3276 15.4616ZM37.112 15.2486V4.33947H39.6831V15.2486H37.112ZM38.4047 2.79118C37.9975 2.79118 37.6471 2.65624 37.3535 2.38635C37.06 2.11173 36.9132 1.78266 36.9132 1.39913C36.9132 1.01088 37.06 0.681804 37.3535 0.411917C37.6471 0.137296 37.9975 -1.43051e-05 38.4047 -1.43051e-05C38.8166 -1.43051e-05 39.167 0.137296 39.4558 0.411917C39.7493 0.681804 39.8961 1.01088 39.8961 1.39913C39.8961 1.78266 39.7493 2.11173 39.4558 2.38635C39.167 2.65624 38.8166 2.79118 38.4047 2.79118ZM47.0854 15.4616C46.0201 15.4616 45.0968 15.2273 44.3155 14.7585C43.5343 14.2898 42.9282 13.634 42.4973 12.7912C42.0712 11.9484 41.8581 10.9635 41.8581 9.83663C41.8581 8.70974 42.0712 7.72252 42.4973 6.87499C42.9282 6.02745 43.5343 5.3693 44.3155 4.90055C45.0968 4.4318 46.0201 4.19743 47.0854 4.19743C48.1507 4.19743 49.074 4.4318 49.8553 4.90055C50.6365 5.3693 51.2402 6.02745 51.6664 6.87499C52.0972 7.72252 52.3127 8.70974 52.3127 9.83663C52.3127 10.9635 52.0972 11.9484 51.6664 12.7912C51.2402 13.634 50.6365 14.2898 49.8553 14.7585C49.074 15.2273 48.1507 15.4616 47.0854 15.4616ZM47.0996 13.402C47.6773 13.402 48.1602 13.2434 48.5485 12.9261C48.9367 12.6042 49.2256 12.1733 49.415 11.6335C49.6091 11.0937 49.7061 10.4924 49.7061 9.82953C49.7061 9.16192 49.6091 8.55822 49.415 8.01845C49.2256 7.47394 48.9367 7.04071 48.5485 6.71874C48.1602 6.39677 47.6773 6.23578 47.0996 6.23578C46.5078 6.23578 46.0153 6.39677 45.6223 6.71874C45.2341 7.04071 44.9429 7.47394 44.7488 8.01845C44.5594 8.55822 44.4647 9.16192 44.4647 9.82953C44.4647 10.4924 44.5594 11.0937 44.7488 11.6335C44.9429 12.1733 45.2341 12.6042 45.6223 12.9261C46.0153 13.2434 46.5078 13.402 47.0996 13.402ZM60.0204 4.33947V6.32811H53.5716V4.33947H60.0204ZM55.1838 15.2486V3.30964C55.1838 2.57574 55.3353 1.96495 55.6383 1.47726C55.9461 0.989569 56.358 0.624986 56.8741 0.383508C57.3902 0.142031 57.9631 0.021292 58.5929 0.021292C59.0379 0.021292 59.4333 0.0568036 59.7789 0.127827C60.1246 0.198849 60.3803 0.26277 60.546 0.319588L60.0346 2.30822C59.9257 2.27508 59.7884 2.24194 59.6227 2.20879C59.457 2.17091 59.2723 2.15197 59.0687 2.15197C58.5905 2.15197 58.252 2.26798 58.0531 2.49999C57.859 2.72726 57.7619 3.05396 57.7619 3.4801V15.2486H55.1838ZM63.6319 19.3395C63.2815 19.3395 62.9572 19.3111 62.6589 19.2542C62.3654 19.2022 62.131 19.1406 61.9558 19.0696L62.5524 17.0667C62.9264 17.1756 63.2602 17.2277 63.5538 17.223C63.8474 17.2183 64.1054 17.1259 64.3279 16.946C64.5552 16.7708 64.747 16.4773 64.9032 16.0653L65.1234 15.4758L61.1674 4.33947H63.8947L66.4089 12.5781H66.5225L69.0439 4.33947H71.7782L67.4103 16.5696C67.2067 17.1472 66.9368 17.642 66.6007 18.054C66.2645 18.4706 65.8526 18.7879 65.3649 19.0057C64.8819 19.2282 64.3043 19.3395 63.6319 19.3395Z" fill="#353EE8"/>
</svg>
